<?xml version="1.0" encoding="utf-8"?>
<!-- Generator: Adobe Illustrator 21.1.0, SVG Export Plug-In . SVG Version: 6.00 Build 0)  -->
<svg version="1.1" xmlns="http://www.w3.org/2000/svg" xmlns:xlink="http://www.w3.org/1999/xlink" x="0px" y="0px"
	 viewBox="0 0 500 200" style="enable-background:new 0 0 500 200;" xml:space="preserve">
<style type="text/css">
	.st0{display:none;}
	.st1{display:inline;}
	.st2{fill:#1B1464;}
	.st3{fill:#FFFFFF;}
	.st4{fill:none;}
</style>
<g id="Layer_1" class="st0">
</g>
<g id="Layer_3">
</g>
<g id="Layer_2">
	<g>
		<g>
			<path class="st3" d="M491.4,27c-85.3-10.6-101.9-10.9-116-10.9s-40.6,2.2-80.9,11.2c-31.6,7.1-39.3,7.1-43.6,7.1
				c-0.7,0-0.9,0-0.9,0s-0.2,0-0.9,0c-4.4,0-12.1-0.1-43.6-7.1c-40.3-9-66.8-11.2-80.9-11.2S93.9,16.4,8.6,27
				c-1.6,0.2-4.3,0.2-4.3,5c0,4.7,0,28,0,28c0,1.8,2.5,1.8,4,1.8s9.7,3,11.6,13.3c1.9,10.3,10,52.4,13.3,61.5
				c3.3,9,14.7,47.3,81.4,47.3s96.5-53,96.5-53s9.2-18.8,20.3-50c1.6-5.9,7.4-12.9,18.5-12.9c11.1,0,16.9,6.9,18.5,12.9
				c11.1,31.2,20.3,50,20.3,50s29.8,53,96.5,53s78.1-38.2,81.4-47.3c3.3-9,11.5-51.2,13.3-61.5s10-13.3,11.6-13.3c1.5,0,4-1.1,4-2.9
				c0,0,0-22.2,0-26.9C495.7,27.3,493,27.3,491.4,27z M215.2,79.9c-1,5.8-5,38.2-23.9,61.5c-5.2,5.6-29.2,34-71.8,34
				c-16.3,0-45.7,3.3-69.1-26.6c-2.6-3.2-14.5-20.8-14.5-49.1S37.1,62,44,48.9s18.2-23.9,75.4-23.9c0,0,26.9-0.4,46.4,5
				S203.2,39,213,59.1c0,0,1.9,4.8,2.1,6.9C215.3,68,216.1,74.1,215.2,79.9z M449.7,148.4c-23.4,29.9-52.8,26.6-69.1,26.6
				c-42.6,0-66.6-28.5-71.8-34c-18.8-23.3-22.9-55.7-23.9-61.5c-1-5.8-0.2-11.9,0-14c0.2-2,2.1-6.9,2.1-6.9
				c9.8-20,27.7-23.8,47.2-29.1c19.5-5.4,46.4-5,46.4-5c57.2,0,68.5,10.8,75.4,23.9c6.9,13.1,8.2,22.5,8.2,50.9
				C464.1,127.6,452.2,145.1,449.7,148.4z"/>
		</g>
		<g>
			<polygon class="st3" points="82.9,175.6 70.3,175.6 108.3,21.7 120.9,21.7 			"/>
			<polygon class="st3" points="133.6,175.6 120.9,175.6 158.9,21.7 171.5,21.7 			"/>
			<polygon class="st3" points="30.2,88.9 30.2,76.2 219.6,73.6 219.6,86.5 			"/>
			<polygon class="st3" points="30.2,126.4 30.2,113.7 219.6,111.1 212.1,124 			"/>
		</g>
		<g>
			<polygon class="st3" points="416.5,175.6 429.2,175.6 391.2,21.7 378.5,21.7 			"/>
			<polygon class="st3" points="365.9,175.6 378.5,175.6 340.6,21.7 327.9,21.7 			"/>
			<polygon class="st3" points="469.3,88.9 469.3,76.2 279.9,73.6 279.9,86.5 			"/>
			<polygon class="st3" points="469.3,126.4 469.3,113.7 279.9,111.1 287.3,124 			"/>
		</g>
	</g>
</g>
</svg>
